<?xml version="1.0" encoding="UTF-8" standalone="no"?>
<svg width="360px" height="348px" viewBox="0 0 360 348" version="1.1" xmlns="http://www.w3.org/2000/svg" xmlns:xlink="http://www.w3.org/1999/xlink">
    <!-- Generator: Sketch 41.2 (35397) - http://www.bohemiancoding.com/sketch -->
    <title>Group</title>
    <desc>Created with Sketch.</desc>
    <defs>
        <path d="M0,8.00589009 C0,3.58435908 3.57760494,0 8.00252222,0 L351.997478,0 C356.417149,0 360,3.58624504 360,8.00589009 L360,339.99411 C360,344.415641 356.422395,348 351.997478,348 L8.00252222,348 C3.58285124,348 0,344.413755 0,339.99411 L0,8.00589009 Z M23,36.9944291 C23,32.5792278 26.5804653,29 30.9979534,29 L329.002047,29 C333.419194,29 337,32.5767906 337,36.9944291 L337,308.005571 C337,312.420772 333.419535,316 329.002047,316 L30.9979534,316 C26.5808057,316 23,312.423209 23,308.005571 L23,36.9944291 Z" id="path-1"></path>
        <mask id="mask-2" maskContentUnits="userSpaceOnUse" maskUnits="objectBoundingBox" x="0" y="0" width="360" height="348" fill="white">
            <use xlink:href="#path-1"></use>
        </mask>
    </defs>
    <g id="Page-1" stroke="none" stroke-width="1" fill="none" fill-rule="evenodd">
        <g id="Desktop" transform="translate(-329.000000, -164.000000)" stroke="#979797" fill="#6A5A5A">
            <g id="Group" transform="translate(329.000000, 164.000000)">
                <use id="Combined-Shape" mask="url(#mask-2)" stroke-width="2" xlink:href="#path-1"></use>
                <path d="M180.5,245 C218.88379,245 250,213.212217 250,174 C250,134.787783 218.88379,103 180.5,103 C142.11621,103 111,134.787783 111,174 C111,213.212217 142.11621,245 180.5,245 Z M181,209 C200.329966,209 216,193.329966 216,174 C216,154.670034 200.329966,139 181,139 C161.670034,139 146,154.670034 146,174 C146,193.329966 161.670034,209 181,209 Z" id="Combined-Shape"></path>
            </g>
        </g>
    </g>
</svg>